<svg width="273" height="205" viewBox="0 0 273 205" fill="none" xmlns="http://www.w3.org/2000/svg">
<rect x="0.5" width="271" height="69" rx="10" fill="white"/>
<path d="M264.671 203.943L7.66912 202.056C3.7706 202.028 0.934277 198.347 1.90025 194.57L44.5 28H226.5L270.52 196.425C271.519 200.245 268.619 203.972 264.671 203.943Z" fill="white" stroke="white"/>
<mask id="mask0_318_13105" style="mask-type:alpha" maskUnits="userSpaceOnUse" x="26" y="36" width="222" height="150">
<path d="M240.853 184.939L33.3553 183.275C29.5571 183.244 26.7427 179.737 27.5356 176.022L57.2138 37H213.5L246.74 177.558C247.636 181.345 244.745 184.97 240.853 184.939Z" fill="#D9D9D9" stroke="black"/>
</mask>
<g mask="url(#mask0_318_13105)">
<path d="M240.853 184.939L33.3553 183.275C29.5571 183.244 26.7427 179.737 27.5356 176.022L57.2138 37H213.5L246.74 177.558C247.636 181.345 244.745 184.97 240.853 184.939Z" fill="#0046A0" stroke="white"/>
<path d="M198 184H152.5L158.5 37H184L198 184Z" fill="white"/>
</g>
</svg>
