<svg width="690" height="219" viewBox="0 0 690 219" fill="none" xmlns="http://www.w3.org/2000/svg">
<mask id="mask0_318_4424" style="mask-type:alpha" maskUnits="userSpaceOnUse" x="0" y="0" width="690" height="690">
<path fill-rule="evenodd" clip-rule="evenodd" d="M345 690C535.538 690 690 535.538 690 345C690 154.462 535.538 0 345 0C154.462 0 0 154.462 0 345C0 535.538 154.462 690 345 690ZM345 673C526.149 673 673 526.149 673 345C673 163.851 526.149 17 345 17C163.851 17 17 163.851 17 345C17 526.149 163.851 673 345 673Z" fill="#D9D9D9"/>
</mask>
<g mask="url(#mask0_318_4424)">
<path fill-rule="evenodd" clip-rule="evenodd" d="M345 690C535.538 690 690 535.538 690 345C690 154.462 535.538 0 345 0C154.462 0 0 154.462 0 345C0 535.538 154.462 690 345 690ZM345 673C526.149 673 673 526.149 673 345C673 163.851 526.149 17 345 17C163.851 17 17 163.851 17 345C17 526.149 163.851 673 345 673Z" fill="#D9D9D9"/>
<path d="M-163.801 -147.231L378.968 -690.001L933.799 -135.17L391.03 407.599L-163.801 -147.231Z" fill="#0691E4"/>
<path d="M348.813 363.374L618.187 -450.78L1343.89 274.922L545.818 1072.99L348.813 363.374Z" fill="#804591"/>
<path d="M-776.93 779.498L21.1419 -18.5738L366.906 327.19L-314.571 1241.86L-776.93 779.498Z" fill="#FBE711"/>
<path d="M-99.4723 -139.19L-495.493 256.83L366.907 327.189L-99.4723 -139.19Z" fill="#03A116"/>
</g>
</svg>
