<svg width="271" height="127" viewBox="0 0 271 127" fill="none" xmlns="http://www.w3.org/2000/svg">
<rect width="271" height="69" rx="10" fill="white"/>
<path d="M230 91C230 112.539 184.258 127 134 127C83.7421 127 42 112.539 42 91C42 69.4609 83.7421 49 134 49C184.258 49 230 69.4609 230 91Z" fill="white"/>
<path d="M230 91C230 112.539 184.258 127 134 127C83.7421 127 42 112.539 42 91C42 69.4609 83.7421 49 134 49C184.258 49 230 69.4609 230 91Z" fill="white"/>
<path d="M229 80C229 84.9958 226.355 89.6849 221.414 93.9552C216.469 98.2287 209.307 102.004 200.511 105.135C182.929 111.395 159.048 115 134 115C108.952 115 86.079 111.394 69.5063 105.142C61.2173 102.014 54.5593 98.2449 49.9897 93.9807C45.4289 89.7246 43 85.0298 43 80C43 74.9535 45.4445 69.8701 50.0326 65.0393C54.6195 60.2098 61.2917 55.6981 69.5764 51.8289C86.1427 44.092 108.995 39 134 39C159.006 39 182.867 44.0925 200.443 51.8379C209.234 55.7117 216.409 60.2295 221.369 65.0667C226.336 69.9096 229 74.9852 229 80Z" fill="white"/>
<path d="M229 80C229 84.9958 226.355 89.6849 221.414 93.9552C216.469 98.2287 209.307 102.004 200.511 105.135C182.929 111.395 159.048 115 134 115C108.952 115 86.079 111.394 69.5063 105.142C61.2173 102.014 54.5593 98.2449 49.9897 93.9807C45.4289 89.7246 43 85.0298 43 80C43 74.9535 45.4445 69.8701 50.0326 65.0393C54.6195 60.2098 61.2917 55.6981 69.5764 51.8289C86.1427 44.092 108.995 39 134 39C159.006 39 182.867 44.0925 200.443 51.8379C209.234 55.7117 216.409 60.2295 221.369 65.0667C226.336 69.9096 229 74.9852 229 80Z" fill="white"/>
<path d="M229 80C229 84.9958 226.355 89.6849 221.414 93.9552C216.469 98.2287 209.307 102.004 200.511 105.135C182.929 111.395 159.048 115 134 115C108.952 115 86.079 111.394 69.5063 105.142C61.2173 102.014 54.5593 98.2449 49.9897 93.9807C45.4289 89.7246 43 85.0298 43 80C43 74.9535 45.4445 69.8701 50.0326 65.0393C54.6195 60.2098 61.2917 55.6981 69.5764 51.8289C86.1427 44.092 108.995 39 134 39C159.006 39 182.867 44.0925 200.443 51.8379C209.234 55.7117 216.409 60.2295 221.369 65.0667C226.336 69.9096 229 74.9852 229 80Z" stroke="#0046A0" stroke-width="2"/>
<path d="M213 79.4615C213 97.1347 175.53 109 134.362 109C93.193 109 59 97.1347 59 79.4615C59 61.7884 93.193 45 134.362 45C175.53 45 213 61.7884 213 79.4615Z" fill="white"/>
<path d="M213 79.4615C213 97.1347 175.53 109 134.362 109C93.193 109 59 97.1347 59 79.4615C59 61.7884 93.193 45 134.362 45C175.53 45 213 61.7884 213 79.4615Z" fill="#0046A0"/>
</svg>
