<svg width="1244" height="662" viewBox="0 0 1244 662" fill="none" xmlns="http://www.w3.org/2000/svg">
<g opacity="0.6">
<mask id="mask0_318_13663" style="mask-type:alpha" maskUnits="userSpaceOnUse" x="166" y="166" width="912" height="912">
<path fill-rule="evenodd" clip-rule="evenodd" d="M227.959 849.501C353.604 1067.12 631.877 1141.69 849.5 1016.04C1067.12 890.397 1141.69 612.124 1016.04 394.501C890.397 176.877 612.124 102.314 394.5 227.959C176.877 353.604 102.314 631.877 227.959 849.501ZM241.381 841.751C362.746 1051.96 631.541 1123.98 841.751 1002.62C1051.96 881.255 1123.98 612.46 1002.62 402.25C881.255 192.04 612.46 120.016 402.25 241.381C192.04 362.746 120.016 631.541 241.381 841.751Z" fill="#D9D9D9"/>
</mask>
<g mask="url(#mask0_318_13663)">
<path fill-rule="evenodd" clip-rule="evenodd" d="M227.959 849.501C353.604 1067.12 631.877 1141.69 849.5 1016.04C1067.12 890.397 1141.69 612.124 1016.04 394.501C890.397 176.877 612.124 102.314 394.5 227.959C176.877 353.604 102.314 631.877 227.959 849.501ZM241.381 841.751C362.746 1051.96 631.541 1123.98 841.751 1002.62C1051.96 881.255 1123.98 612.46 1002.62 402.25C881.255 192.04 612.46 120.016 402.25 241.381C192.04 362.746 120.016 631.541 241.381 841.751Z" fill="#D9D9D9"/>
<path d="M848.688 -283.713L1826.52 -21.7025L1558.69 977.864L580.855 715.853L848.688 -283.713Z" fill="#0691E4"/>
<path d="M603.528 638.473L1711.04 409.269L1360.73 1716.67L-77.0549 1331.42L603.528 638.473Z" fill="#804591"/>
<path d="M-614.084 -372.894L823.698 12.3588L656.787 635.277L-837.278 460.078L-614.084 -372.894Z" fill="#FBE711"/>
<path d="M-780.994 250.024L656.788 635.277L433.594 1468.25L-1004.19 1083L-780.994 250.024Z" fill="#EE2222"/>
<path d="M881.923 -204.939L168.465 -396.109L656.788 635.276L881.923 -204.939Z" fill="#03A116"/>
</g>
</g>
</svg>
