<svg width="508" height="508" viewBox="0 0 508 508" fill="none" xmlns="http://www.w3.org/2000/svg">
<mask id="mask0_75_5674" style="mask-type:alpha" maskUnits="userSpaceOnUse" x="0" y="0" width="508" height="508">
<path fill-rule="evenodd" clip-rule="evenodd" d="M254 508C394.28 508 508 394.28 508 254C508 113.72 394.28 0 254 0C113.72 0 0 113.72 0 254C0 394.28 113.72 508 254 508ZM254 490C384.339 490 490 384.339 490 254C490 123.661 384.339 18 254 18C123.661 18 18 123.661 18 254C18 384.339 123.661 490 254 490Z" fill="#D9D9D9"/>
</mask>
<g mask="url(#mask0_75_5674)">
<path fill-rule="evenodd" clip-rule="evenodd" d="M254 508C394.28 508 508 394.28 508 254C508 113.72 394.28 0 254 0C113.72 0 0 113.72 0 254C0 394.28 113.72 508 254 508ZM254 490C384.339 490 490 384.339 490 254C490 123.661 384.339 18 254 18C123.661 18 18 123.661 18 254C18 384.339 123.661 490 254 490Z" fill="#D9D9D9"/>
<path d="M-120.596 -108.396L279.008 -508L687.492 -99.516L287.888 300.088L-120.596 -108.396Z" fill="#0691E4"/>
<path d="M256.807 267.528L455.129 -331.878L989.414 202.407L401.849 789.973L256.807 267.528Z" fill="#804591"/>
<path d="M-572 573.891L15.5657 -13.6747L270.128 240.888L-231.597 914.294L-572 573.891Z" fill="#FBE711"/>
<path d="M-317.438 828.454L270.128 240.888L610.532 581.291L22.9659 1168.86L-317.438 828.454Z" fill="#EE2222"/>
<path d="M-73.235 -102.476L-364.798 189.087L270.128 240.887L-73.235 -102.476Z" fill="#03A116"/>
</g>
</svg>
